<svg xmlns="http://www.w3.org/2000/svg" width="26" height="42" viewBox="0 0 13 21">
  <defs>
    <style>
      .cls-1 {
        fill: #fff;
        fill-rule: evenodd;
      }
    </style>
  </defs>
  <path id="Forma_1" data-name="Forma 1" class="cls-1" d="M631.425,52.588v0A1.938,1.938,0,0,0,630.041,52h-9.085A1.98,1.98,0,0,0,619,53.991V71.006a2,2,0,0,0,.575,1.408,1.936,1.936,0,0,0,1.381.586h9.088a1.936,1.936,0,0,0,1.381-.586A2.008,2.008,0,0,0,632,71.008V53.994A2.008,2.008,0,0,0,631.425,52.588ZM625.5,71.648h0a0.538,0.538,0,1,1,.528-0.538A0.534,0.534,0,0,1,625.5,71.648Zm4.946-3.378a1.29,1.29,0,0,1-1.278,1.3H621.83a1.291,1.291,0,0,1-1.279-1.3V55.59a1.291,1.291,0,0,1,1.279-1.3h7.34a1.29,1.29,0,0,1,1.278,1.3Z" transform="translate(-619 -52)"/>
</svg>
