<svg xmlns="http://www.w3.org/2000/svg" width="102" height="118" viewBox="0 0 51 59">
  <defs>
    <style>
      .cls-1 {
        fill-rule: evenodd;
      }
    </style>
  </defs>
  <path id="Forma_1" data-name="Forma 1" class="cls-1" d="M379.123,1298.64a0.883,0.883,0,0,0,.877-0.88v-11.92a0.874,0.874,0,0,0-.877-0.87H373.34v-4.09a0.876,0.876,0,0,0-.877-0.88h-4.381a0.875,0.875,0,0,0-.876.88v4.09h-4a0.875,0.875,0,1,0,0,1.75h4v10.16H341.794v-10.16h17.321a0.875,0.875,0,1,0,0-1.75H341.794v-4.09a0.876,0.876,0,0,0-.877-0.88h-4.381a0.875,0.875,0,0,0-.876.88v4.09h-5.784a0.873,0.873,0,0,0-.876.87v11.92a0.882,0.882,0,0,0,.876.88h5.784v4.03h-5.784a0.873,0.873,0,0,0-.876.87v11.92a0.873,0.873,0,0,0,.876.87h5.784v4.04h-5.784a0.873,0.873,0,0,0-.876.87v11.92a0.873,0.873,0,0,0,.876.87h5.784v4.09a0.875,0.875,0,0,0,.876.88h4.381a0.876,0.876,0,0,0,.877-0.88v-4.09h25.412v4.09a0.875,0.875,0,0,0,.876.88h4.381a0.876,0.876,0,0,0,.877-0.88v-4.09h5.783a0.874,0.874,0,0,0,.877-0.87v-11.92a0.874,0.874,0,0,0-.877-0.87H373.34v-4.04h5.783a0.874,0.874,0,0,0,.877-0.87v-11.92a0.874,0.874,0,0,0-.877-0.87H373.34v-4.03h5.783Zm-5.783-11.92h4.907v10.16H373.34v-10.16Zm-37.68,45.56h-4.907v-10.16h4.907v10.16Zm0-17.7h-4.907v-10.16h4.907v10.16Zm0-17.7h-4.907v-10.16h4.907v10.16Zm4.381,40.37h-2.629v-55.5h2.629v55.5Zm27.165-16.88H347.2a0.875,0.875,0,1,0,0,1.75h20.009v10.16H341.794v-10.16h1.314a0.875,0.875,0,1,0,0-1.75h-1.314v-4.04h25.412v4.04h0Zm0-5.79H341.794v-10.16h25.412v10.16h0Zm0-11.91H341.794v-4.03h25.412v4.03h0Zm4.381,34.58h-2.629v-55.5h2.629v55.5Zm1.753-15.13h4.907v10.16H373.34v-10.16Zm0-17.7h4.907v10.16H373.34v-10.16Z" transform="translate(-329 -1280)"/>
</svg>
