<svg xmlns="http://www.w3.org/2000/svg" width="104" height="110" viewBox="0 0 52 55">
  <defs>
    <style>
      .cls-1 {
        fill-rule: evenodd;
      }
    </style>
  </defs>
  <path id="Forma_1" data-name="Forma 1" class="cls-1" d="M803.134,966.044a1.128,1.128,0,0,0-1.395.791l-14.7,52.7a1.141,1.141,0,0,0,.78,1.41,1.072,1.072,0,0,0,.307.05,1.131,1.131,0,0,0,1.088-.84l14.695-52.7A1.148,1.148,0,0,0,803.134,966.044Zm35.822,53.5-14.7-52.7a1.128,1.128,0,0,0-1.395-.791,1.148,1.148,0,0,0-.781,1.414l14.695,52.711a1.135,1.135,0,0,0,1.089.83,1.574,1.574,0,0,0,.307-0.04A1.157,1.157,0,0,0,838.956,1019.54Zm-25.956-10a1.137,1.137,0,0,0-1.13,1.15v9.16a1.13,1.13,0,1,0,2.26,0v-9.16A1.137,1.137,0,0,0,813,1009.54Zm0-18.331a1.138,1.138,0,0,0-1.13,1.146v9.165a1.13,1.13,0,1,0,2.26,0v-9.165A1.138,1.138,0,0,0,813,991.209Zm0-16.041a1.138,1.138,0,0,0-1.13,1.146v6.874a1.13,1.13,0,1,0,2.26,0v-6.874A1.138,1.138,0,0,0,813,975.168ZM813,966a1.138,1.138,0,0,0-1.13,1.146v2.291a1.13,1.13,0,1,0,2.26,0v-2.291A1.138,1.138,0,0,0,813,966Z" transform="translate(-787 -966)"/>
</svg>
