<svg xmlns="http://www.w3.org/2000/svg" width="120" height="88" viewBox="0 0 60 44">
  <defs>
    <style>
      .cls-1 {
        fill-rule: evenodd;
      }
    </style>
  </defs>
  <path id="Forma_1" data-name="Forma 1" class="cls-1" d="M1307.32,1014.19h0a10.539,10.539,0,0,1-2.41-2.35c-1.61-1.83-3.66-4.11-7.46-4.11s-5.78,2.2-7.46,4.18-2.78,3.16-5.27,3.16-3.73-1.4-5.26-3.16-3.59-4.18-7.46-4.18-5.78,2.2-7.46,4.18-2.78,3.16-5.27,3.16-3.73-1.4-5.27-3.16a12.4,12.4,0,0,0-3.87-3.37,1.476,1.476,0,0,0-1.32,2.64,11.142,11.142,0,0,1,3,2.64c1.68,1.98,3.66,4.18,7.46,4.18s5.78-2.2,7.46-4.18,2.78-3.15,5.27-3.15,3.73,1.39,5.26,3.15,3.59,4.18,7.46,4.18,5.78-2.2,7.46-4.18,2.78-3.15,5.27-3.15,3.73,1.39,5.26,3.15a14.27,14.27,0,0,0,3,2.86A1.483,1.483,0,1,0,1307.32,1014.19Zm0-11h0a10.539,10.539,0,0,1-2.41-2.35c-1.61-1.834-3.66-4.107-7.46-4.107s-5.78,2.2-7.46,4.177-2.78,3.16-5.27,3.16-3.73-1.4-5.26-3.16-3.59-4.177-7.46-4.177-5.78,2.2-7.46,4.177-2.78,3.16-5.27,3.16-3.73-1.4-5.27-3.16a12.437,12.437,0,0,0-3.87-3.371,1.476,1.476,0,0,0-1.32,2.641,11.142,11.142,0,0,1,3,2.64c1.68,1.98,3.66,4.18,7.46,4.18s5.78-2.2,7.46-4.18,2.78-3.154,5.27-3.154,3.73,1.394,5.26,3.154,3.59,4.18,7.46,4.18,5.78-2.2,7.46-4.18,2.78-3.154,5.27-3.154,3.73,1.394,5.26,3.154a14.27,14.27,0,0,0,3,2.86A1.483,1.483,0,1,0,1307.32,1003.19Zm0-11.737h0a10.464,10.464,0,0,1-2.41-2.347c-1.61-1.833-3.66-4.106-7.46-4.106s-5.78,2.2-7.46,4.18-2.78,3.153-5.27,3.153-3.73-1.393-5.26-3.153S1275.87,985,1272,985s-5.78,2.2-7.46,4.18-2.78,3.153-5.27,3.153-3.73-1.393-5.27-3.153a12.4,12.4,0,0,0-3.87-3.374,1.476,1.476,0,0,0-1.32,2.64,11.176,11.176,0,0,1,3,2.64c1.68,1.98,3.66,4.18,7.46,4.18s5.78-2.2,7.46-4.18,2.78-3.153,5.27-3.153,3.73,1.393,5.26,3.153,3.59,4.18,7.46,4.18,5.78-2.2,7.46-4.18,2.78-3.153,5.27-3.153,3.73,1.393,5.26,3.153a14.3,14.3,0,0,0,3,2.86A1.484,1.484,0,0,0,1307.32,991.453Zm-58.51-14.007a11.176,11.176,0,0,1,3,2.64c1.68,1.98,3.66,4.18,7.46,4.18s5.78-2.2,7.46-4.18,2.78-3.153,5.27-3.153,3.73,1.393,5.26,3.153,3.59,4.18,7.46,4.18,5.78-2.2,7.46-4.18,2.78-3.153,5.27-3.153,3.73,1.393,5.26,3.153a14.3,14.3,0,0,0,3,2.86,1.484,1.484,0,0,0,1.61-2.493h0a10.464,10.464,0,0,1-2.41-2.347c-1.61-1.833-3.66-4.106-7.46-4.106s-5.78,2.2-7.46,4.18-2.78,3.153-5.27,3.153-3.73-1.394-5.26-3.153S1275.87,974,1272,974s-5.78,2.2-7.46,4.18-2.78,3.153-5.27,3.153-3.73-1.394-5.27-3.153a12.4,12.4,0,0,0-3.87-3.374A1.476,1.476,0,0,0,1248.81,977.446Z" transform="translate(-1248 -974)"/>
</svg>
